<svg width="2390" height="1390" viewBox="0 0 2390 1390" fill="none" xmlns="http://www.w3.org/2000/svg">
<path d="M403.277 1318.96L262.402 1092L285.881 1318.96L403.277 1318.96Z" fill="white" stroke="#00D0FE" stroke-width="0.215558"/>
<path d="M965.814 1099.83L872.86 1215.66L1174.96 1273.57L965.814 1099.83Z" fill="white" stroke="#00D0FE" stroke-width="0.215558"/>
<path d="M762.821 971.473L699.114 1157.52L872.86 1215.66L762.821 971.473Z" fill="white" stroke="#00D0FE" stroke-width="0.215558"/>
<path d="M124.41 1109.22L66.7418 1214.09L285.881 1318.96L124.41 1109.22Z" fill="white" stroke="#00D0FE" stroke-width="0.215558"/>
<path d="M1215.56 1121.74L1174.96 1273.57L1273.57 1267.73L1215.56 1121.74Z" fill="white" stroke="#00D0FE" stroke-width="0.215558"/>
<path d="M1419.14 1081.04L1215.66 1121.79L1273.8 1267.31L1419.14 1081.04Z" fill="white" stroke="#00D0FE" stroke-width="0.215558"/>
<path d="M1419.74 1081.04L1273.57 1267.31L1472.36 1267.31L1419.74 1081.04Z" fill="white" stroke="#00D0FE" stroke-width="0.215558"/>
<path d="M536.996 1104.52L403.277 1318.96L566.066 1237.82L536.996 1104.52Z" fill="white" stroke="#00D0FE" stroke-width="0.215558"/>
<path d="M1099.78 1070.09L966.777 1099.16L1174.96 1273.57L1099.78 1070.09Z" fill="white" stroke="#00D0FE" stroke-width="0.215558"/>
<path d="M699.114 1156.58L537.891 1104.52L566.68 1237.57L699.114 1156.58Z" fill="white" stroke="#00D0FE" stroke-width="0.215558"/>
<path d="M761.726 971.473L537.891 1105.35L698.593 1157.74L761.726 971.473Z" fill="white" stroke="#00D0FE" stroke-width="0.215558"/>
<path d="M390.494 883.817L361.015 1040.63L537.891 1104.52L390.494 883.817Z" fill="white" stroke="#00D0FE" stroke-width="0.215558"/>
<path d="M1215.66 1122.41L1099.83 1070.09L1175.12 1273.57L1215.66 1122.41Z" fill="white" stroke="#00D0FE" stroke-width="0.215558"/>
<path d="M1059.13 907.723L1100.22 1070.09L1223.48 814.945L1059.13 907.723Z" fill="white" stroke="#00D0FE" stroke-width="0.215558"/>
<path d="M362.188 1041.91L262.402 1093.86L403.277 1318.96L362.188 1041.91Z" fill="white" stroke="#00D0FE" stroke-width="0.215558"/>
<path d="M361.015 1041.91L402.286 1318.96L537.891 1105.4L361.015 1041.91Z" fill="white" stroke="#00D0FE" stroke-width="0.215558"/>
<path d="M1616.37 1168.36L1419.14 1081.04L1471.35 1267.31L1616.37 1168.36Z" fill="white" stroke="#00D0FE" stroke-width="0.215558"/>
<path d="M1616.37 1168.7L1593.16 976.169L1419.14 1081.18L1616.37 1168.7Z" fill="white" stroke="#00D0FE" stroke-width="0.215558"/>
<path d="M262.849 1092L124.657 1109.46L285.881 1318.96L262.849 1092Z" fill="white" stroke="#00D0FE" stroke-width="0.215558"/>
<path d="M262.402 1092.16L124.657 1001.21L124.657 1109.22L262.402 1092.16Z" fill="white" stroke="#00D0FE" stroke-width="0.215558"/>
<path d="M761.726 971.473L873.039 1215.66L966.777 1099.38L761.726 971.473Z" fill="white" stroke="#00D0FE" stroke-width="0.215558"/>
<path d="M761.726 971.473L966.777 1099.83L943.343 907.296L761.726 971.473Z" fill="white" stroke="#00D0FE" stroke-width="0.215558"/>
<path d="M2140.74 1092L1948.21 1214.46L2111.57 1389.4L2140.74 1092Z" fill="white" stroke="#00D0FE" stroke-width="0.215558"/>
<path d="M943.298 907.297L966.464 1099.83L1059.13 907.297L943.298 907.297Z" fill="white" stroke="#00D0FE" stroke-width="0.215558"/>
<path d="M2139.86 1092L2111 1389.4L2203.35 1348.58L2139.86 1092Z" fill="white" stroke="#00D0FE" stroke-width="0.215558"/>
<path d="M2140.74 1092L1948.21 1168.55L1948.21 1215.66L2140.74 1092Z" fill="white" stroke="#00D0FE" stroke-width="0.215558"/>
<path d="M1343.56 901.035L1215.66 1121.74L1419.14 1081.08L1343.56 901.035Z" fill="white" stroke="#00D0FE" stroke-width="0.215558"/>
<path d="M1059.33 907.297L966.777 1099.83L1099.83 1070.65L1059.33 907.297Z" fill="white" stroke="#00D0FE" stroke-width="0.215558"/>
<path d="M303.007 865.034L262.402 1092L361.014 1039.62L303.007 865.034Z" fill="white" stroke="#00D0FE" stroke-width="0.215558"/>
<path d="M303.099 865.034L124.657 998.885L262.806 1092L303.099 865.034Z" fill="white" stroke="#00D0FE" stroke-width="0.215558"/>
<path d="M1099.83 1069.47L1216.1 1121.74L1344.01 901.035L1099.83 1069.47Z" fill="white" stroke="#00D0FE" stroke-width="0.215558"/>
<path d="M761.726 971.316L646.938 872.86L537.891 1104.52L761.726 971.316Z" fill="white" stroke="#00D0FE" stroke-width="0.215558"/>
<path d="M1594.45 976.286L1617.62 1168.7L1768.2 935.471L1594.45 976.286Z" fill="white" stroke="#00D0FE" stroke-width="0.215558"/>
<path d="M1768.38 935.471L1616.37 1168.7L1815.16 1162.87L1768.38 935.471Z" fill="white" stroke="#00D0FE" stroke-width="0.215558"/>
<path d="M802.726 731.985L761.725 971.473L943.298 907.22L802.726 731.985Z" fill="white" stroke="#00D0FE" stroke-width="0.215558"/>
<path d="M803.988 731.985L645.895 872.173L763.001 971.473L803.988 731.985Z" fill="white" stroke="#00D0FE" stroke-width="0.215558"/>
<path d="M1459.84 877.556L1344.01 900.812L1419.3 1081.04L1459.84 877.556Z" fill="white" stroke="#00D0FE" stroke-width="0.215558"/>
<path d="M1058.99 907.296L1076.35 744.507L943.298 907.296L1058.99 907.296Z" fill="white" stroke="#00D0FE" stroke-width="0.215558"/>
<path d="M645.895 872.86L390.755 884.443L535.721 1104.52L645.895 872.86Z" fill="white" stroke="#00D0FE" stroke-width="0.215558"/>
<path d="M1948.21 1168.7L1768.2 935.471L1814.65 1162.87L1948.21 1168.7Z" fill="white" stroke="#00D0FE" stroke-width="0.215558"/>
<path d="M1344.01 901.925L1221.92 814.945L1099.83 1070.09L1344.01 901.925Z" fill="white" stroke="#00D0FE" stroke-width="0.215558"/>
<path d="M1594.45 976.392L1460.05 877.556L1419.14 1081.04L1594.45 976.392Z" fill="white" stroke="#00D0FE" stroke-width="0.215558"/>
<path d="M1663.33 791.466L1459.84 878.045L1593.56 976.169L1663.33 791.466Z" fill="white" stroke="#00D0FE" stroke-width="0.215558"/>
<path d="M390.754 882.721L303.099 865.034L361.536 1041.91L390.754 882.721Z" fill="white" stroke="#00D0FE" stroke-width="0.215558"/>
<path d="M281.185 761.725L304.253 866.376L390.755 883.817L281.185 761.725Z" fill="white" stroke="#00D0FE" stroke-width="0.215558"/>
<path d="M281.185 761.099L392.274 883.817L479.976 708.506L281.185 761.099Z" fill="white" stroke="#00D0FE" stroke-width="0.215558"/>
<path d="M2104.73 993.387L2139.53 1092.57L2359.88 1121.74L2104.73 993.387Z" fill="white" stroke="#00D0FE" stroke-width="0.215558"/>
<path d="M2034.3 894.774L1768.2 935.571L1947.53 1168.7L2034.3 894.774Z" fill="white" stroke="#00D0FE" stroke-width="0.215558"/>
<path d="M1425.4 628.677L1223.48 814.112L1344.64 901.035L1425.4 628.677Z" fill="white" stroke="#00D0FE" stroke-width="0.215558"/>
<path d="M1076.35 745.178L1223.48 814.945L1117.54 611.459L1076.35 745.178Z" fill="white" stroke="#00D0FE" stroke-width="0.215558"/>
<path d="M1223.48 814.274L1076.74 744.507L1059.13 907.296L1223.48 814.274Z" fill="white" stroke="#00D0FE" stroke-width="0.215558"/>
<path d="M1425.09 628.677L1344.01 901.035L1459.84 877.856L1425.09 628.677Z" fill="white" stroke="#00D0FE" stroke-width="0.215558"/>
<path d="M931.689 691.288L803.988 732.154L943.298 907.296L931.689 691.288Z" fill="white" stroke="#00D0FE" stroke-width="0.215558"/>
<path d="M303.099 866.866L280.074 761.725L124.657 1001.21L303.099 866.866Z" fill="white" stroke="#00D0FE" stroke-width="0.215558"/>
<path d="M2140.74 1092.73L2105.73 993.387L1948.21 1168.7L2140.74 1092.73Z" fill="white" stroke="#00D0FE" stroke-width="0.215558"/>
<path d="M1768.2 935.765L1663.95 791.466L1594.45 976.169L1768.2 935.765Z" fill="white" stroke="#00D0FE" stroke-width="0.215558"/>
<path d="M477.734 708.506L390.755 883.817L645.895 872.13L477.734 708.506Z" fill="white" stroke="#00D0FE" stroke-width="0.215558"/>
<path d="M1076.35 743.831L930.776 691.288L942.421 907.296L1076.35 743.831Z" fill="white" stroke="#00D0FE" stroke-width="0.215558"/>
<path d="M582.96 691.288L479.975 708.859L645.895 872.86L582.96 691.288Z" fill="white" stroke="#00D0FE" stroke-width="0.215558"/>
<path d="M908.862 645.671L931.993 691.288L1117.04 611.459L908.862 645.671Z" fill="white" stroke="#00D0FE" stroke-width="0.215558"/>
<path d="M583.284 691.288L647.172 872.86L803.988 732.288L583.284 691.288Z" fill="white" stroke="#00D0FE" stroke-width="0.215558"/>
<path d="M1797.94 721.028L1663.33 790.577L1768.68 935.472L1797.94 721.028Z" fill="white" stroke="#00D0FE" stroke-width="0.215558"/>
<path d="M693.636 587.979L583.284 691.664L803.988 731.985L693.636 587.979Z" fill="white" stroke="#00D0FE" stroke-width="0.215558"/>
<path d="M2104.73 993.853L2035.17 894.774L1948.21 1168.7L2104.73 993.853Z" fill="white" stroke="#00D0FE" stroke-width="0.215558"/>
<path d="M2389.62 889.542L2139.62 791.466L2104.73 993.387L2389.62 889.542Z" fill="white" stroke="#00D0FE" stroke-width="0.215558"/>
<path d="M2140.74 791.466L2034.3 895.311L2105.26 993.387L2140.74 791.466Z" fill="white" stroke="#00D0FE" stroke-width="0.215558"/>
<path d="M47.9585 691.288L123.757 1001.21L281.185 761.46L47.9585 691.288Z" fill="white" stroke="#00D0FE" stroke-width="0.215558"/>
<path d="M930.776 691.81L907.724 645.895L803.988 731.985L930.776 691.81Z" fill="white" stroke="#00D0FE" stroke-width="0.215558"/>
<path d="M1117.04 611.459L930.776 692.445L1076.3 744.507L1117.04 611.459Z" fill="white" stroke="#00D0FE" stroke-width="0.215558"/>
<path d="M1663.33 791.213L1517.98 699.114L1459.84 877.556L1663.33 791.213Z" fill="white" stroke="#00D0FE" stroke-width="0.215558"/>
<path d="M1575.98 592.675L1517.76 697.917L1663.33 791.466L1575.98 592.675Z" fill="white" stroke="#00D0FE" stroke-width="0.215558"/>
<path d="M479.976 709.602L450.742 645.895L281.185 761.725L479.976 709.602Z" fill="white" stroke="#00D0FE" stroke-width="0.215558"/>
<path d="M583.284 691.43L448.67 645.895L477.934 708.506L583.284 691.43Z" fill="white" stroke="#00D0FE" stroke-width="0.215558"/>
<path d="M595.806 564.5L448.67 645.183L584.035 691.288L595.806 564.5Z" fill="white" stroke="#00D0FE" stroke-width="0.215558"/>
<path d="M908.862 645.582L694.419 587.979L804.538 731.985L908.862 645.582Z" fill="white" stroke="#00D0FE" stroke-width="0.215558"/>
<path d="M1339.31 517.542L1117.04 610.845L1222.33 814.945L1339.31 517.542Z" fill="white" stroke="#00D0FE" stroke-width="0.215558"/>
<path d="M77.1118 650.591L47.9585 691.535L281.185 761.725L77.1118 650.591Z" fill="white" stroke="#00D0FE" stroke-width="0.215558"/>
<path d="M734.989 454.931L694.419 588.027L908.862 645.895L734.989 454.931Z" fill="white" stroke="#00D0FE" stroke-width="0.215558"/>
<path d="M293.707 530.064L76.1333 651.686L281.946 761.725L293.707 530.064Z" fill="white" stroke="#00D0FE" stroke-width="0.215558"/>
<path d="M1943.51 732.62L1797.42 721.028L1768.2 935.472L1943.51 732.62Z" fill="white" stroke="#00D0FE" stroke-width="0.215558"/>
<path d="M1517.76 698.131L1425.4 628.677L1460.04 877.556L1517.76 698.131Z" fill="white" stroke="#00D0FE" stroke-width="0.215558"/>
<path d="M1941.74 731.985L1768.2 935.471L2034.3 894.774L1941.74 731.985Z" fill="white" stroke="#00D0FE" stroke-width="0.215558"/>
<path d="M1575.67 592.675L1425.4 628.155L1517.88 699.114L1575.67 592.675Z" fill="white" stroke="#00D0FE" stroke-width="0.215558"/>
<path d="M2140.74 790.124L1943.51 731.985L2036.32 894.774L2140.74 790.124Z" fill="white" stroke="#00D0FE" stroke-width="0.215558"/>
<path d="M292.736 530.064L281.185 761.725L448.67 645.895L292.736 530.064Z" fill="white" stroke="#00D0FE" stroke-width="0.215558"/>
<path d="M694.418 587.553L594.982 564.5L583.284 691.288L694.418 587.553Z" fill="white" stroke="#00D0FE" stroke-width="0.215558"/>
<path d="M733.551 454.931L595.806 564.841L693.375 587.98L733.551 454.931Z" fill="white" stroke="#00D0FE" stroke-width="0.215558"/>
<path d="M733.55 453.137L907.51 645.895L988.691 406.407L733.55 453.137Z" fill="white" stroke="#00D0FE" stroke-width="0.215558"/>
<path d="M1797.94 721.304L1575.67 592.675L1663.41 791.466L1797.94 721.304Z" fill="white" stroke="#00D0FE" stroke-width="0.215558"/>
<path d="M2104.73 994.326L2360.55 1121.74L2389.62 890.078L2104.73 994.326Z" fill="white" stroke="#00D0FE" stroke-width="0.215558"/>
<path d="M1425.4 628.339L1338.87 517.542L1223.48 814.945L1425.4 628.339Z" fill="white" stroke="#00D0FE" stroke-width="0.215558"/>
<path d="M1826.12 551.978L1575.67 592.783L1796.99 721.028L1826.12 551.978Z" fill="white" stroke="#00D0FE" stroke-width="0.215558"/>
<path d="M1826.93 551.978L1797.94 721.028L1954.47 586.954L1826.93 551.978Z" fill="white" stroke="#00D0FE" stroke-width="0.215558"/>
<path d="M1506.8 442.409L1339.31 518.08L1425.94 628.677L1506.8 442.409Z" fill="white" stroke="#00D0FE" stroke-width="0.215558"/>
<path d="M414.234 459.627L293.707 529.477L448.67 645.895L414.234 459.627Z" fill="white" stroke="#00D0FE" stroke-width="0.215558"/>
<path d="M414.234 459.627L449.377 645.895L595.806 564.403L414.234 459.627Z" fill="white" stroke="#00D0FE" stroke-width="0.215558"/>
<path d="M1954.47 587.98L1797.94 720.465L1942.87 731.985L1954.47 587.98Z" fill="white" stroke="#00D0FE" stroke-width="0.215558"/>
<path d="M989.822 406.407L908.862 645.895L1117.04 610.848L989.822 406.407Z" fill="white" stroke="#00D0FE" stroke-width="0.215558"/>
<path d="M519.663 365.71L414.234 459.258L595.806 564.5L519.663 365.71Z" fill="white" stroke="#00D0FE" stroke-width="0.215558"/>
<path d="M1339.31 517.959L1112.35 436.148L1118.17 611.459L1339.31 517.959Z" fill="white" stroke="#00D0FE" stroke-width="0.215558"/>
<path d="M733.551 453.412L519.108 365.71L594.452 564.5L733.551 453.412Z" fill="white" stroke="#00D0FE" stroke-width="0.215558"/>
<path d="M1304.4 378.232L1112.35 436.278L1339.31 517.542L1304.4 378.232Z" fill="white" stroke="#00D0FE" stroke-width="0.215558"/>
<path d="M1506.32 442.409L1425.4 628.677L1575.67 593.752L1506.32 442.409Z" fill="white" stroke="#00D0FE" stroke-width="0.215558"/>
<path d="M1955.11 587.98L1943.51 733.327L2140.74 791.466L1955.11 587.98Z" fill="white" stroke="#00D0FE" stroke-width="0.215558"/>
<path d="M1111.21 435.7L988.691 406.407L1117.04 611.459L1111.21 435.7Z" fill="white" stroke="#00D0FE" stroke-width="0.215558"/>
<path d="M913.558 263.373L988.759 406.407L1046.61 240.488L913.558 263.373Z" fill="white" stroke="#00D0FE" stroke-width="0.215558"/>
<path d="M2211.17 599.607L1954.47 587.98L2141.16 791.466L2211.17 599.607Z" fill="white" stroke="#00D0FE" stroke-width="0.215558"/>
<path d="M0.999908 464.322L77.1038 650.591L293.707 528.352L0.999908 464.322Z" fill="white" stroke="#00D0FE" stroke-width="0.215558"/>
<path d="M1657.21 378.232L1575.67 592.675L1826.12 552.105L1657.21 378.232Z" fill="white" stroke="#00D0FE" stroke-width="0.215558"/>
<path d="M1658.63 378.232L1506.8 441.986L1576.87 592.675L1658.63 378.232Z" fill="white" stroke="#00D0FE" stroke-width="0.215558"/>
<path d="M211.749 343.796L0.999903 466.034L293.707 530.064L211.749 343.796Z" fill="white" stroke="#00D0FE" stroke-width="0.215558"/>
<path d="M210.748 343.796L292.142 530.064L414.234 460.214L210.748 343.796Z" fill="white" stroke="#00D0FE" stroke-width="0.215558"/>
<path d="M600.248 285.881L519.108 367.491L733.551 454.931L600.248 285.881Z" fill="white" stroke="#00D0FE" stroke-width="0.215558"/>
<path d="M826.329 290.577L733.55 454.931L988.691 407.973L826.329 290.577Z" fill="white" stroke="#00D0FE" stroke-width="0.215558"/>
<path d="M1506.8 442.083L1303.31 378.232L1338.2 517.542L1506.8 442.083Z" fill="white" stroke="#00D0FE" stroke-width="0.215558"/>
<path d="M1954.47 587.98L1866.95 442.409L1826.12 553.043L1954.47 587.98Z" fill="white" stroke="#00D0FE" stroke-width="0.215558"/>
<path d="M1447.32 240.488L1309.07 257.706L1303.31 378.232L1447.32 240.488Z" fill="white" stroke="#00D0FE" stroke-width="0.215558"/>
<path d="M2042.12 373.536L1868.38 443.086L1955.25 587.98L2042.12 373.536Z" fill="white" stroke="#00D0FE" stroke-width="0.215558"/>
<path d="M268.887 262.402L210.748 343.612L414.234 459.627L268.887 262.402Z" fill="white" stroke="#00D0FE" stroke-width="0.215558"/>
<path d="M913.837 262.402L827.467 291.203L988.691 406.407L913.837 262.402Z" fill="white" stroke="#00D0FE" stroke-width="0.215558"/>
<path d="M988.691 407.374L1112.35 436.148L1047.58 240.488L988.691 407.374Z" fill="white" stroke="#00D0FE" stroke-width="0.215558"/>
<path d="M1868.38 441.939L1658.63 378.232L1827.59 551.978L1868.38 441.939Z" fill="white" stroke="#00D0FE" stroke-width="0.215558"/>
<path d="M270.228 262.402L414.925 459.627L519.107 366.815L270.228 262.402Z" fill="white" stroke="#00D0FE" stroke-width="0.215558"/>
<path d="M827.467 291.71L600.502 285.881L734.353 454.931L827.467 291.71Z" fill="white" stroke="#00D0FE" stroke-width="0.215558"/>
<path d="M2211.17 598.937L2193.67 431.452L1954.47 587.386L2211.17 598.937Z" fill="white" stroke="#00D0FE" stroke-width="0.215558"/>
<path d="M1046.61 240.488L1110.89 436.147L1309.57 257.752L1046.61 240.488Z" fill="white" stroke="#00D0FE" stroke-width="0.215558"/>
<path d="M554.224 22.9139L467.453 209.913L600.502 285.881L554.224 22.9139Z" fill="white" stroke="#00D0FE" stroke-width="0.215558"/>
<path d="M467.453 209.182L519.516 365.71L600.502 284.547L467.453 209.182Z" fill="white" stroke="#00D0FE" stroke-width="0.215558"/>
<path d="M1309.57 256.141L1112.35 436.148L1303.77 378.081L1309.57 256.141Z" fill="white" stroke="#00D0FE" stroke-width="0.215558"/>
<path d="M1447.32 240.488L1506.02 442.409L1658.63 378.948L1447.32 240.488Z" fill="white" stroke="#00D0FE" stroke-width="0.215558"/>
<path d="M1448.66 240.488L1303.31 378.948L1506.8 442.409L1448.66 240.488Z" fill="white" stroke="#00D0FE" stroke-width="0.215558"/>
<path d="M1447.32 238.531L1658.63 378.232L1646.89 191.964L1447.32 238.531Z" fill="white" stroke="#00D0FE" stroke-width="0.215558"/>
<path d="M467.016 209.182L270.228 261.358L519.107 365.71L467.016 209.182Z" fill="white" stroke="#00D0FE" stroke-width="0.215558"/>
<path d="M600.502 284.819L827.467 290.577L740.173 129.353L600.502 284.819Z" fill="white" stroke="#00D0FE" stroke-width="0.215558"/>
<path d="M1309.57 256.14L1041.91 41.6973L1047.73 238.753L1309.57 256.14Z" fill="white" stroke="#00D0FE" stroke-width="0.215558"/>
<path d="M1763.5 204.486L1658.63 378.576L1868.38 442.409L1763.5 204.486Z" fill="white" stroke="#00D0FE" stroke-width="0.215558"/>
<path d="M739.812 129.396L914.438 262.402L926.08 54.2195L739.812 129.396Z" fill="white" stroke="#00D0FE" stroke-width="0.215558"/>
<path d="M739.812 129.353L826.685 290.577L913.558 261.787L739.812 129.353Z" fill="white" stroke="#00D0FE" stroke-width="0.215558"/>
<path d="M124.657 198.225L212 343.796L270.228 262.276L124.657 198.225Z" fill="white" stroke="#00D0FE" stroke-width="0.215558"/>
<path d="M2192.39 431.494L2041.51 373.536L1954.47 587.98L2192.39 431.494Z" fill="white" stroke="#00D0FE" stroke-width="0.215558"/>
<path d="M2111 279.62L1943.51 297.229L2041.69 373.536L2111 279.62Z" fill="white" stroke="#00D0FE" stroke-width="0.215558"/>
<path d="M2042.12 373.286L1943.67 298.403L1868.38 442.409L2042.12 373.286Z" fill="white" stroke="#00D0FE" stroke-width="0.215558"/>
<path d="M2111.48 279.62L2042.12 373.055L2192.39 431.452L2111.48 279.62Z" fill="white" stroke="#00D0FE" stroke-width="0.215558"/>
<path d="M925.127 54.2195L913.558 262.402L1046.61 239.27L925.127 54.2195Z" fill="white" stroke="#00D0FE" stroke-width="0.215558"/>
<path d="M285.881 41.6972L124.657 198.513L268.607 262.402L285.881 41.6972Z" fill="white" stroke="#00D0FE" stroke-width="0.215558"/>
<path d="M1401.4 116.831L1309.57 256.14L1447.32 238.727L1401.4 116.831Z" fill="white" stroke="#00D0FE" stroke-width="0.215558"/>
<path d="M374.641 116.831L270.228 262.402L467.453 209.996L374.641 116.831Z" fill="white" stroke="#00D0FE" stroke-width="0.215558"/>
<path d="M1761.94 203.606L1646.11 191.964L1657.69 378.232L1761.94 203.606Z" fill="white" stroke="#00D0FE" stroke-width="0.215558"/>
<path d="M1943.51 297.334L1761.94 204.486L1867.37 442.409L1943.51 297.334Z" fill="white" stroke="#00D0FE" stroke-width="0.215558"/>
<path d="M1954.47 82.3946L1761.94 204.994L1942.8 298.403L1954.47 82.3946Z" fill="white" stroke="#00D0FE" stroke-width="0.215558"/>
<path d="M555.109 22.9139L373.537 116.048L467.251 209.182L555.109 22.9139Z" fill="white" stroke="#00D0FE" stroke-width="0.215558"/>
<path d="M1599.15 104.308L1401.92 116.15L1448.33 240.488L1599.15 104.308Z" fill="white" stroke="#00D0FE" stroke-width="0.215558"/>
<path d="M739.812 128.101L555.109 22.9139L601.285 285.881L739.812 128.101Z" fill="white" stroke="#00D0FE" stroke-width="0.215558"/>
<path d="M1599.33 104.308L1447.32 240.488L1646.11 193.121L1599.33 104.308Z" fill="white" stroke="#00D0FE" stroke-width="0.215558"/>
<path d="M1761.94 204.486L1599.15 104.308L1645.66 192.701L1761.94 204.486Z" fill="white" stroke="#00D0FE" stroke-width="0.215558"/>
<path d="M2286.31 262.402L2111 279.89L2192.81 431.452L2286.31 262.402Z" fill="white" stroke="#00D0FE" stroke-width="0.215558"/>
<path d="M1040.87 41.6973L926.08 53.3908L1046.61 240.488L1040.87 41.6973Z" fill="white" stroke="#00D0FE" stroke-width="0.215558"/>
<path d="M1350.27 59.0846L1041.91 41.6973L1309.54 256.14L1350.27 59.0846Z" fill="white" stroke="#00D0FE" stroke-width="0.215558"/>
<path d="M1401.92 116.923L1349.98 58.9154L1309.57 256.141L1401.92 116.923Z" fill="white" stroke="#00D0FE" stroke-width="0.215558"/>
<path d="M1774.46 1.00012L1599.15 105.65L1762.77 204.486L1774.46 1.00012Z" fill="white" stroke="#00D0FE" stroke-width="0.215558"/>
<path d="M373.537 117.201L287.446 41.6972L270.228 262.402L373.537 117.201Z" fill="white" stroke="#00D0FE" stroke-width="0.215558"/>
<path d="M2111 280.889L1955.06 82.3946L1943.51 298.403L2111 280.889Z" fill="white" stroke="#00D0FE" stroke-width="0.215558"/>
<path d="M2140.74 128.801L1954.47 82.3946L2111.63 279.62L2140.74 128.801Z" fill="white" stroke="#00D0FE" stroke-width="0.215558"/>
<path d="M2286.31 262.281L2140.21 129.353L2111 279.62L2286.31 262.281Z" fill="white" stroke="#00D0FE" stroke-width="0.215558"/>
<path d="M1773.61 1.00011L1761.94 204.486L1954.47 82.3946L1773.61 1.00011Z" fill="white" stroke="#00D0FE" stroke-width="0.215558"/>
</svg>
