<svg width="251" height="71" viewBox="0 0 251 71" fill="none" xmlns="http://www.w3.org/2000/svg">
<g clip-path="url(#clip0)">
<path d="M226.485 36.485L247.101 21.0297L249.546 14.6046L226.485 36.485Z" fill="#7C39BF"/>
<g filter="url(#filter0_d)">
<path d="M226.825 36.3353L245.107 27.4954L247.845 21.2023L226.825 36.3353Z" fill="white"/>
<path d="M245 27.3638L247.481 21.6635L228.44 35.3709L245 27.3638Z" stroke="#00D0FE" stroke-width="4.28922"/>
</g>
<path d="M247.197 27.3818L239.472 32.3724L226.825 36.4391L247.197 27.3818Z" fill="white"/>
<path d="M3.85657 49.9374C3.85657 51.2453 4.1804 52.4542 4.82807 53.564C5.49537 54.6738 6.37855 55.5557 7.47762 56.2097C8.59634 56.8637 9.80337 57.1907 11.0987 57.1907C12.4332 57.1907 13.6403 56.9231 14.7197 56.3881C15.7992 55.853 16.6431 55.1098 17.2515 54.1586C17.8795 53.2073 18.2034 52.1371 18.223 50.9481H19.2828C19.2828 52.3155 18.9197 53.564 18.1936 54.6937C17.487 55.8034 16.5057 56.6853 15.2497 57.3393C14.0132 57.9735 12.6295 58.2906 11.0987 58.2906C9.6071 58.2906 8.22341 57.9141 6.94771 57.161C5.672 56.4079 4.66125 55.3971 3.91545 54.1288C3.16965 52.8407 2.79675 51.4435 2.79675 49.9374V45.0622C2.79675 43.556 3.15984 42.1687 3.88601 40.9004C4.6318 39.6122 5.63275 38.5916 6.88883 37.8385C8.16457 37.0854 9.54819 36.7089 11.0398 36.7089C12.551 36.7089 13.9249 37.0358 15.1613 37.6899C16.4174 38.3241 17.4085 39.2059 18.1347 40.3355C18.8609 41.4454 19.2239 42.684 19.2239 44.0514H18.1641C18.1445 42.8623 17.8207 41.7922 17.1927 40.8409C16.5646 39.8897 15.7108 39.1465 14.6314 38.6114C13.5716 38.0763 12.3744 37.8088 11.0398 37.8088C9.74446 37.8088 8.54723 38.1358 7.44818 38.7897C6.34911 39.4437 5.47574 40.3256 4.82807 41.4355C4.1804 42.5452 3.85657 43.7541 3.85657 45.0622V49.9374ZM27.3561 37.1547H28.4454V49.9374C28.4454 51.2453 28.7692 52.4542 29.4169 53.564C30.0646 54.6738 30.9379 55.5557 32.037 56.2097C33.1361 56.8637 34.3333 57.1907 35.6286 57.1907C36.924 57.1907 38.1211 56.8637 39.2202 56.2097C40.3193 55.5557 41.1927 54.6738 41.8404 53.564C42.488 52.4542 42.8118 51.2453 42.8118 49.9374V37.1547H43.9011V49.9374C43.9011 51.4435 43.5282 52.8407 42.7824 54.1288C42.0366 55.3971 41.0259 56.4079 39.7501 57.161C38.4941 57.9141 37.1203 58.2906 35.6286 58.2906C34.137 58.2906 32.7534 57.9141 31.4777 57.161C30.2216 56.4079 29.2207 55.3971 28.4748 54.1288C27.729 52.8407 27.3561 51.4435 27.3561 49.9374V37.1547Z" fill="white"/>
<path d="M4.82809 53.564L3.46345 54.376L3.46874 54.3851L3.47415 54.394L4.82809 53.564ZM7.47764 56.2096L6.67348 57.5877L6.67874 57.5907L6.68402 57.5939L7.47764 56.2096ZM14.7197 56.388L14.0217 54.9523L14.7197 56.388ZM17.2515 54.1585L15.9336 53.2713L15.9272 53.281L15.921 53.2908L17.2515 54.1585ZM18.2231 50.948V49.3486H16.6653L16.6393 50.9213L18.2231 50.948ZM19.2829 50.948H20.8668V49.3486H19.2829V50.948ZM18.1936 54.6936L16.865 53.8227L16.8631 53.8257L16.8612 53.8287L18.1936 54.6936ZM15.2497 57.3393L15.9669 58.7653L15.9713 58.7631L15.9755 58.7609L15.2497 57.3393ZM3.91547 54.1288L2.54805 54.936L2.55075 54.9407L2.5535 54.9454L3.91547 54.1288ZM3.88602 40.9004L2.51861 40.0931L2.51667 40.0965L2.51475 40.0998L3.88602 40.9004ZM6.88884 37.8384L6.08944 36.4577L6.0848 36.4604L6.08018 36.4632L6.88884 37.8384ZM15.1613 37.6898L14.4264 39.1066L14.4396 39.1136L14.453 39.1204L15.1613 37.6898ZM18.1347 40.3355L16.8061 41.2063L16.8096 41.2118L16.8131 41.2172L18.1347 40.3355ZM19.2239 44.0514V45.6507H20.8079V44.0514H19.2239ZM18.1641 44.0514L16.5805 44.078L16.6064 45.6507H18.1641V44.0514ZM14.6314 38.6113L13.9231 40.0419L13.9282 40.0445L13.9334 40.0471L14.6314 38.6113ZM7.44819 38.7897L8.25238 40.1676L7.44819 38.7897ZM4.82809 41.4354L3.46345 40.6234L4.82809 41.4354ZM2.27264 49.9373C2.27264 51.5262 2.66989 53.0162 3.46345 54.376L6.19272 52.752C5.69094 51.8922 5.44053 50.9643 5.44053 49.9373H2.27264ZM3.47415 54.394C4.27599 55.7276 5.34732 56.7985 6.67348 57.5877L8.2818 54.8317C7.4098 54.3128 6.71476 53.6199 6.18202 52.7339L3.47415 54.394ZM6.68402 57.5939C8.04441 58.3892 9.52525 58.7901 11.0987 58.7901V55.5912C10.0814 55.5912 9.14821 55.3382 8.27123 54.8255L6.68402 57.5939ZM11.0987 58.7901C12.6484 58.7901 14.0981 58.4779 15.4177 57.8238L14.0217 54.9523C13.1825 55.3683 12.2181 55.5912 11.0987 55.5912V58.7901ZM15.4177 57.8238C16.7358 57.1704 17.8065 56.239 18.5821 55.0262L15.921 53.2908C15.4798 53.9806 14.8625 54.5355 14.0217 54.9523L15.4177 57.8238ZM18.5695 55.0457C19.3729 53.8286 19.7823 52.4574 19.8067 50.9747L16.6393 50.9213C16.6245 51.8168 16.3862 52.5858 15.9336 53.2713L18.5695 55.0457ZM18.2231 52.5474H19.2829V49.3486H18.2231V52.5474ZM17.6989 50.948C17.6989 52.0114 17.4218 52.9566 16.865 53.8227L19.5221 55.5644C20.4177 54.1714 20.8668 52.6195 20.8668 50.948H17.6989ZM16.8612 53.8287C16.3171 54.6833 15.5536 55.3815 14.5237 55.9177L15.9755 58.7609C17.4578 57.9891 18.6569 56.9235 19.5259 55.5585L16.8612 53.8287ZM14.5323 55.9133C13.5405 56.422 12.4066 56.6911 11.0987 56.6911V59.89C12.8526 59.89 14.486 59.5249 15.9669 58.7653L14.5323 55.9133ZM11.0987 56.6911C9.88525 56.6911 8.77787 56.3886 7.74711 55.7802L6.14831 58.5417C7.66897 59.4393 9.3289 59.89 11.0987 59.89V56.6911ZM7.74711 55.7802C6.70047 55.1623 5.88445 54.3446 5.27743 53.3122L2.5535 54.9454C3.43806 56.4497 4.64356 57.6534 6.14831 58.5417L7.74711 55.7802ZM5.28288 53.3216C4.68027 52.2807 4.38071 51.1626 4.38071 49.9373H1.21281C1.21281 51.7244 1.65906 53.4005 2.54805 54.936L5.28288 53.3216ZM4.38071 49.9373V45.0621H1.21281V49.9373H4.38071ZM4.38071 45.0621C4.38071 43.8287 4.67448 42.7188 5.2573 41.7008L2.51475 40.0998C1.64522 41.6186 1.21281 43.2831 1.21281 45.0621H4.38071ZM5.25344 41.7075C5.86534 40.6507 6.67514 39.8267 7.69748 39.2137L6.08018 36.4632C4.59038 37.3564 3.39831 38.5736 2.51861 40.0931L5.25344 41.7075ZM7.68828 39.2192C8.71904 38.6107 9.82642 38.3083 11.0398 38.3083V35.1094C9.26999 35.1094 7.61006 35.56 6.08944 36.4577L7.68828 39.2192ZM11.0398 38.3083C12.3167 38.3083 13.4351 38.5823 14.4264 39.1066L15.8963 36.273C14.4146 35.4893 12.7854 35.1094 11.0398 35.1094V38.3083ZM14.453 39.1204C15.4706 39.6341 16.2419 40.3286 16.8061 41.2063L19.4633 39.4647C18.5752 38.0831 17.3643 37.0138 15.8697 36.2593L14.453 39.1204ZM16.8131 41.2172C17.3632 42.0578 17.64 42.9881 17.64 44.0514H20.8079C20.8079 42.3798 20.3586 40.8329 19.4562 39.4538L16.8131 41.2172ZM19.2239 42.452H18.1641V45.6507H19.2239V42.452ZM19.7479 44.0247C19.7234 42.5419 19.3141 41.1707 18.5105 39.9536L15.8747 41.7281C16.3273 42.4135 16.5656 43.1826 16.5805 44.078L19.7479 44.0247ZM18.5105 39.9536C17.7178 38.7529 16.6436 37.8271 15.3294 37.1756L13.9334 40.0471C14.7781 40.4658 15.4114 41.0264 15.8747 41.7281L18.5105 39.9536ZM15.3398 37.1808C14.0336 36.5213 12.5889 36.2093 11.0398 36.2093V39.4081C12.1598 39.4081 13.1096 39.6312 13.9231 40.0419L15.3398 37.1808ZM11.0398 36.2093C9.46618 36.2093 7.99067 36.6104 6.64404 37.4118L8.25238 40.1676C9.10382 39.661 10.0227 39.4081 11.0398 39.4081V36.2093ZM6.64404 37.4118C5.31366 38.2033 4.24743 39.28 3.46345 40.6234L6.19272 42.2474C6.70408 41.3712 7.38459 40.684 8.25238 40.1676L6.64404 37.4118ZM3.46345 40.6234C2.66989 41.9832 2.27264 43.4732 2.27264 45.0621H5.44053C5.44053 44.0351 5.69094 43.1072 6.19272 42.2474L3.46345 40.6234ZM2.27264 45.0621V49.9373H5.44053V45.0621H2.27264ZM27.3561 37.1547V35.5553H25.7722V37.1547H27.3561ZM28.4454 37.1547H30.0293V35.5553H28.4454V37.1547ZM29.4169 53.564L30.7816 52.752L29.4169 53.564ZM32.037 56.2096L31.2329 57.5877L32.037 56.2096ZM39.2202 56.2096L38.4161 54.8317L39.2202 56.2096ZM41.8404 53.564L40.4757 52.752L41.8404 53.564ZM42.8119 37.1547V35.5553H41.2279V37.1547H42.8119ZM43.9011 37.1547H45.4851V35.5553H43.9011V37.1547ZM42.7824 54.1288L44.1444 54.9454L44.1471 54.9407L44.1499 54.936L42.7824 54.1288ZM39.7501 57.161L38.9508 55.7802L38.9461 55.7829L38.9415 55.7856L39.7501 57.161ZM31.4777 57.161L30.669 58.5362L30.6736 58.539L30.6783 58.5417L31.4777 57.161ZM28.4748 54.1288L27.1074 54.936L27.1101 54.9407L27.1129 54.9454L28.4748 54.1288ZM27.3561 38.7542H28.4454V35.5553H27.3561V38.7542ZM26.8615 37.1547V49.9373H30.0293V37.1547H26.8615ZM26.8615 49.9373C26.8615 51.5262 27.2588 53.0162 28.0523 54.376L30.7816 52.752C30.2798 51.8922 30.0293 50.9643 30.0293 49.9373H26.8615ZM28.0523 54.376C28.8363 55.7193 29.9025 56.796 31.2329 57.5877L32.8412 54.8317C31.9734 54.3154 31.2929 53.6282 30.7816 52.752L28.0523 54.376ZM31.2329 57.5877C32.5795 58.3889 34.0551 58.7901 35.6286 58.7901V55.5912C34.6116 55.5912 33.6927 55.3384 32.8412 54.8317L31.2329 57.5877ZM35.6286 58.7901C37.2022 58.7901 38.6777 58.3889 40.0244 57.5877L38.4161 54.8317C37.5646 55.3384 36.6457 55.5912 35.6286 55.5912V58.7901ZM40.0244 57.5877C41.3548 56.796 42.421 55.7193 43.205 54.376L40.4757 52.752C39.9644 53.6282 39.2839 54.3154 38.4161 54.8317L40.0244 57.5877ZM43.205 54.376C43.9985 53.0162 44.3958 51.5262 44.3958 49.9373H41.2279C41.2279 50.9643 40.9775 51.8922 40.4757 52.752L43.205 54.376ZM44.3958 49.9373V37.1547H41.2279V49.9373H44.3958ZM42.8119 38.7542H43.9011V35.5553H42.8119V38.7542ZM42.3172 37.1547V49.9373H45.4851V37.1547H42.3172ZM42.3172 49.9373C42.3172 51.1626 42.0176 52.2807 41.415 53.3216L44.1499 54.936C45.0389 53.4005 45.4851 51.7244 45.4851 49.9373H42.3172ZM41.4205 53.3122C40.8134 54.3446 39.9974 55.1623 38.9508 55.7802L40.5496 58.5417C42.0543 57.6534 43.2598 56.4497 44.1444 54.9454L41.4205 53.3122ZM38.9415 55.7856C37.9355 56.3888 36.8419 56.6911 35.6286 56.6911V59.89C37.3986 59.89 39.0526 59.4392 40.5588 58.5362L38.9415 55.7856ZM35.6286 56.6911C34.4152 56.6911 33.3078 56.3886 32.2771 55.7802L30.6783 58.5417C32.1989 59.4393 33.8589 59.89 35.6286 59.89V56.6911ZM32.2864 55.7856C31.258 55.1691 30.4473 54.3505 29.8368 53.3122L27.1129 54.9454C27.994 56.4438 29.1851 57.6465 30.669 58.5362L32.2864 55.7856ZM29.8423 53.3216C29.2397 52.2807 28.9401 51.1626 28.9401 49.9373H25.7722C25.7722 51.7244 26.2184 53.4005 27.1074 54.936L29.8423 53.3216ZM28.9401 49.9373V37.1547H25.7722V49.9373H28.9401Z" fill="white"/>
<path d="M51.0382 60.0238V20.4603H56.9289V37.268H76.5466V20.4603H82.491C82.491 20.9333 82.491 21.8246 82.491 23.1343C82.491 24.4076 82.491 25.9355 82.491 27.7182C82.491 29.5008 82.491 31.4835 82.491 33.6663C82.491 35.8128 82.4727 38.0138 82.437 40.2694C82.437 42.4886 82.437 44.6896 82.437 46.8724C82.437 49.0188 82.437 50.9833 82.437 52.7659C82.437 54.5486 82.437 56.0947 82.437 57.4044C82.437 58.6777 82.437 59.5508 82.437 60.0238H76.5466V42.9433H56.9289V60.0238H51.0382ZM87.9078 48.8369C87.9078 47.1634 88.2141 45.5991 88.8268 44.1438C89.4752 42.6522 90.3402 41.3608 91.4204 40.2694C92.5013 39.1416 93.7449 38.2502 95.1497 37.5954C96.5909 36.9406 98.1218 36.6131 99.7432 36.6131C100.824 36.6131 101.815 36.7587 102.715 37.0497C103.616 37.3043 104.391 37.6318 105.039 38.032C105.688 38.4321 106.211 38.8505 106.607 39.287C107.003 39.7236 107.273 40.1057 107.418 40.433L107.634 37.2134H112.065V60.0238H107.418V57.1316C107.238 57.4226 106.949 57.7682 106.553 58.1684C106.157 58.5686 105.634 58.9506 104.985 59.3144C104.373 59.6418 103.634 59.9328 102.769 60.1875C101.905 60.4422 100.914 60.5695 99.7972 60.5695C98.0679 60.5695 96.4647 60.2603 94.9878 59.6418C93.5465 58.987 92.3037 58.1321 91.2585 57.077C90.2141 55.9856 89.3855 54.7305 88.7728 53.3117C88.1959 51.8928 87.9078 50.4013 87.9078 48.8369ZM92.5553 48.564C92.5553 49.619 92.7355 50.6013 93.0958 51.5109C93.4926 52.4204 94.0148 53.2025 94.6632 53.8573C95.3116 54.5122 96.0862 55.0397 96.9869 55.4399C97.8877 55.8037 98.8789 55.9856 99.9591 55.9856C101.04 55.9856 102.031 55.8037 102.932 55.4399C103.869 55.0397 104.661 54.5122 105.31 53.8573C105.994 53.1661 106.517 52.384 106.877 51.5109C107.238 50.6013 107.418 49.619 107.418 48.564C107.418 47.509 107.238 46.5449 106.877 45.6718C106.517 44.7623 105.994 43.9801 105.31 43.3253C104.661 42.6704 103.869 42.1611 102.932 41.7973C102.031 41.3972 101.04 41.1971 99.9591 41.1971C98.8789 41.1971 97.8877 41.3972 96.9869 41.7973C96.0862 42.1611 95.3116 42.6704 94.6632 43.3253C94.0148 43.9801 93.4926 44.7623 93.0958 45.6718C92.7355 46.5449 92.5553 47.509 92.5553 48.564ZM133.687 54.4031C134.191 55.0215 134.66 55.6218 135.092 56.2038C135.561 56.7496 136.029 57.3316 136.497 57.9501C135.488 58.7505 134.353 59.3872 133.092 59.8601C131.831 60.3331 130.462 60.5695 128.985 60.5695C127.327 60.5695 125.761 60.2603 124.283 59.6418C122.843 58.987 121.581 58.1139 120.501 57.0225C119.42 55.9311 118.555 54.6577 117.906 53.2025C117.293 51.7473 116.988 50.2012 116.988 48.564C116.988 46.927 117.293 45.3808 117.906 43.9255C118.555 42.4704 119.42 41.2153 120.501 40.1602C121.581 39.0688 122.843 38.2138 124.283 37.5954C125.761 36.9406 127.327 36.6131 128.985 36.6131C130.498 36.6131 131.885 36.8496 133.146 37.3225C134.443 37.7955 135.615 38.4321 136.659 39.2325L133.687 42.7796C133.074 42.2703 132.372 41.8883 131.579 41.6336C130.787 41.3426 129.922 41.1971 128.985 41.1971C127.904 41.1971 126.913 41.3972 126.012 41.7973C125.112 42.1611 124.319 42.6704 123.635 43.3253C122.986 43.9801 122.482 44.7623 122.122 45.6718C121.762 46.5449 121.581 47.509 121.581 48.564C121.581 49.619 121.762 50.6013 122.122 51.5109C122.482 52.384 122.986 53.1661 123.635 53.8573C124.319 54.5122 125.112 55.0397 126.012 55.4399C126.913 55.8037 127.904 55.9856 128.985 55.9856C129.922 55.9856 130.787 55.8583 131.579 55.6036C132.372 55.3125 133.074 54.9124 133.687 54.4031ZM157.088 36.6131L159.844 39.3962C158.475 40.6695 157.16 41.9064 155.899 43.107C154.674 44.3075 153.377 45.5627 152.008 46.8724C153.629 49.0552 155.215 51.2562 156.764 53.4754C158.313 55.6582 159.881 57.841 161.466 60.0238H156.17C154.944 58.314 153.701 56.6404 152.44 55.0033C151.216 53.3298 149.99 51.6381 148.766 49.9283L145.631 52.8205V60.0238H141.037V17.6227H145.631V47.3635C147.648 45.5081 149.576 43.7254 151.413 42.0156C153.251 40.2694 155.143 38.4685 157.088 36.6131ZM164.35 28.4822C164.35 27.609 164.657 26.8814 165.269 26.2993C165.918 25.7172 166.603 25.4262 167.322 25.4262C168.043 25.4262 168.71 25.7172 169.322 26.2993C169.935 26.8814 170.241 27.609 170.241 28.4822C170.241 29.3553 169.935 30.0829 169.322 30.665C168.71 31.2107 168.043 31.4835 167.322 31.4835C166.603 31.4835 165.918 31.2107 165.269 30.665C164.657 30.0829 164.35 29.3553 164.35 28.4822ZM169.538 60.0238H164.945V37.2134H169.538V60.0238ZM176.028 37.2134H180.081C180.153 38.3412 180.207 39.378 180.243 40.3239C180.316 41.2334 180.387 42.1429 180.459 43.0524C181.288 41.0879 182.459 39.5235 183.972 38.3594C185.521 37.1952 187.413 36.6131 189.646 36.6131C191.916 36.6131 193.736 37.2498 195.105 38.5231C196.474 39.7964 197.195 41.4335 197.267 43.4344V60.0238H192.619V45.5627C192.547 44.3985 192.15 43.4163 191.43 42.6158C190.71 41.7791 189.575 41.3244 188.025 41.2516C186.945 41.2516 185.954 41.4517 185.053 41.8519C184.152 42.2157 183.377 42.725 182.729 43.3799C182.081 44.0347 181.558 44.8169 181.162 45.7264C180.801 46.6359 180.621 47.6363 180.621 48.7277V60.0238H176.028V37.2134ZM202.011 48.6732C202.011 46.9633 202.317 45.3808 202.93 43.9255C203.542 42.434 204.371 41.1607 205.416 40.1057C206.461 39.0142 207.685 38.1593 209.091 37.5408C210.496 36.9224 211.991 36.6131 213.576 36.6131C214.801 36.6131 215.882 36.7769 216.819 37.1042C217.792 37.4317 218.602 37.8137 219.25 38.2502C219.899 38.6868 220.403 39.1234 220.764 39.5599C221.16 39.9601 221.412 40.2512 221.52 40.433C221.52 39.9237 221.557 39.3962 221.629 38.8505C221.7 38.2684 221.737 37.7227 221.737 37.2134H226.168V58.987C226.168 62.7705 225.069 65.7173 222.872 67.8274C220.674 69.9374 217.701 70.9924 213.954 70.9924C212.658 70.9924 211.486 70.8469 210.442 70.5559C209.433 70.3012 208.496 69.9556 207.631 69.5191C206.803 69.0825 206.028 68.5731 205.308 67.9911C204.623 67.409 203.939 66.8087 203.254 66.1903L206.227 63.0251C207.343 64.0802 208.478 64.917 209.631 65.5354C210.82 66.1539 212.225 66.4631 213.846 66.4631C216.261 66.4631 218.134 65.881 219.467 64.7169C220.8 63.5527 221.484 61.9337 221.52 59.8601V58.2776C221.52 57.9865 221.557 57.6773 221.629 57.3498C221.7 56.9861 221.737 56.7132 221.737 56.5313C221.412 56.9679 220.998 57.4408 220.494 57.9501C220.025 58.423 219.467 58.8596 218.818 59.2598C218.17 59.6236 217.413 59.9328 216.549 60.1875C215.684 60.4422 214.711 60.5695 213.63 60.5695C211.937 60.5695 210.388 60.2603 208.982 59.6418C207.577 59.0234 206.352 58.1866 205.308 57.1316C204.262 56.0402 203.452 54.7851 202.876 53.3662C202.299 51.911 202.011 50.3467 202.011 48.6732ZM206.658 48.564C206.658 49.619 206.839 50.6013 207.199 51.5109C207.596 52.4204 208.118 53.2025 208.766 53.8573C209.415 54.5122 210.189 55.0397 211.09 55.4399C211.991 55.8037 212.981 55.9856 214.062 55.9856C215.143 55.9856 216.134 55.8037 217.035 55.4399C217.972 55.0397 218.765 54.5122 219.413 53.8573C220.097 53.1661 220.62 52.384 220.98 51.5109C221.34 50.6013 221.52 49.619 221.52 48.564C221.52 47.509 221.34 46.5449 220.98 45.6718C220.62 44.7623 220.097 43.9801 219.413 43.3253C218.765 42.6704 217.972 42.1611 217.035 41.7973C216.134 41.3972 215.143 41.1971 214.062 41.1971C212.981 41.1971 211.991 41.3972 211.09 41.7973C210.189 42.1611 209.415 42.6704 208.766 43.3253C208.118 43.9801 207.596 44.7623 207.199 45.6718C206.839 46.5449 206.658 47.509 206.658 48.564Z" fill="#9756D8"/>
</g>
<defs>
<filter id="filter0_d" x="207.919" y="-3.54213" width="63.5472" height="59.7496" filterUnits="userSpaceOnUse" color-interpolation-filters="sRGB">
<feFlood flood-opacity="0" result="BackgroundImageFix"/>
<feColorMatrix in="SourceAlpha" type="matrix" values="0 0 0 0 0 0 0 0 0 0 0 0 0 0 0 0 0 0 127 0"/>
<feOffset/>
<feGaussianBlur stdDeviation="9.45292"/>
<feColorMatrix type="matrix" values="0 0 0 0 0 0 0 0 0 0.816584 0 0 0 0 0.995833 0 0 0 1 0"/>
<feBlend mode="normal" in2="BackgroundImageFix" result="effect1_dropShadow"/>
<feBlend mode="normal" in="SourceGraphic" in2="effect1_dropShadow" result="shape"/>
</filter>
<clipPath id="clip0">
<rect width="251" height="71" fill="white"/>
</clipPath>
</defs>
</svg>
