<svg width="159" height="44" viewBox="0 0 159 44" fill="none" xmlns="http://www.w3.org/2000/svg">
<path d="M143.49 22.8914L156.551 13.1945L158.099 9.16319L143.49 22.8914Z" fill="#10021F"/>
<g filter="url(#filter0_d)">
<path d="M143.705 22.7976L155.288 17.2513L157.022 13.3028L143.705 22.7976Z" fill="white"/>
<path d="M155.219 17.1687L156.791 13.5922L144.728 22.1925L155.219 17.1687Z" stroke="#00D0FE" stroke-width="0.206564"/>
</g>
<path d="M156.612 17.1799L151.717 20.3111L143.705 22.8627L156.612 17.1799Z" fill="#280749"/>
<path d="M2.44332 31.5724C2.44332 32.3931 2.64849 33.1516 3.05882 33.8479C3.48158 34.5442 4.04112 35.0975 4.73744 35.5079C5.44619 35.9182 6.21089 36.1234 7.03155 36.1234C7.87708 36.1234 8.64178 35.9555 9.32566 35.6198C10.0095 35.2841 10.5442 34.8178 10.9297 34.2209C11.3276 33.6241 11.5327 32.9526 11.5452 32.2066H12.2166C12.2166 33.0645 11.9866 33.8479 11.5265 34.5567C11.0789 35.253 10.4572 35.8063 9.66139 36.2166C8.87803 36.6145 8.00142 36.8135 7.03155 36.8135C6.08655 36.8135 5.20994 36.5772 4.40171 36.1047C3.59349 35.6322 2.95313 34.9981 2.48063 34.2023C2.00813 33.3941 1.77188 32.5174 1.77188 31.5724V28.5136C1.77188 27.5686 2.00191 26.6982 2.46197 25.9024C2.93447 25.0942 3.56862 24.4539 4.36441 23.9814C5.17263 23.5089 6.04925 23.2726 6.99425 23.2726C7.95168 23.2726 8.82208 23.4778 9.60543 23.8881C10.4012 24.286 11.0292 24.8393 11.4892 25.5481C11.9493 26.2444 12.1793 27.0215 12.1793 27.8795H11.5079C11.4954 27.1334 11.2903 26.462 10.8924 25.8651C10.4945 25.2683 9.95359 24.802 9.26971 24.4663C8.59826 24.1306 7.83977 23.9627 6.99425 23.9627C6.17359 23.9627 5.4151 24.1679 4.71879 24.5782C4.02247 24.9885 3.46915 25.5418 3.05882 26.2382C2.64849 26.9345 2.44332 27.693 2.44332 28.5136V31.5724ZM17.3315 23.5524H18.0215V31.5724C18.0215 32.3931 18.2267 33.1516 18.637 33.8479C19.0474 34.5442 19.6007 35.0975 20.297 35.5079C20.9933 35.9182 21.7518 36.1234 22.5725 36.1234C23.3931 36.1234 24.1516 35.9182 24.8479 35.5079C25.5443 35.0975 26.0976 34.5442 26.5079 33.8479C26.9182 33.1516 27.1234 32.3931 27.1234 31.5724V23.5524H27.8135V31.5724C27.8135 32.5174 27.5772 33.3941 27.1047 34.2023C26.6322 34.9981 25.9919 35.6322 25.1837 36.1047C24.3879 36.5772 23.5175 36.8135 22.5725 36.8135C21.6275 36.8135 20.7509 36.5772 19.9426 36.1047C19.1468 35.6322 18.5127 34.9981 18.0402 34.2023C17.5677 33.3941 17.3315 32.5174 17.3315 31.5724V23.5524Z" fill="#9756D8"/>
<path d="M3.05882 33.8479L2.19418 34.3574L2.20103 34.3687L3.05882 33.8479ZM4.73744 35.5079L4.22795 36.3725L4.23464 36.3763L4.73744 35.5079ZM9.32566 35.6198L8.88344 34.719V34.719L9.32566 35.6198ZM10.9297 34.2209L10.0947 33.6643L10.0907 33.6704L10.0867 33.6765L10.9297 34.2209ZM11.5452 32.2066V31.2031H10.5582L10.5418 32.1899L11.5452 32.2066ZM12.2166 32.2066H13.2201V31.2031H12.2166V32.2066ZM11.5265 34.5567L10.6848 34.0103L10.6824 34.014L11.5265 34.5567ZM9.66139 36.2166L10.1158 37.1113L10.1213 37.1085L9.66139 36.2166ZM2.48063 34.2023L1.61428 34.7088L1.61776 34.7146L2.48063 34.2023ZM2.46197 25.9024L1.59564 25.396L1.5932 25.4002L2.46197 25.9024ZM4.36441 23.9813L3.85793 23.115L3.85208 23.1185L4.36441 23.9813ZM9.60543 23.8881L9.1398 24.777L9.14818 24.7814L9.15665 24.7857L9.60543 23.8881ZM11.4892 25.5481L10.6475 26.0945L10.652 26.1013L11.4892 25.5481ZM12.1793 27.8795V28.883H13.1828V27.8795H12.1793ZM11.5079 27.8795L10.5045 27.8962L10.5209 28.883H11.5079V27.8795ZM9.26971 24.4663L8.82091 25.3639L8.82749 25.3671L9.26971 24.4663ZM4.71879 24.5782L5.22826 25.4428L4.71879 24.5782ZM3.05882 26.2382L2.19426 25.7287L2.19426 25.7287L3.05882 26.2382ZM1.43982 31.5724C1.43982 32.5694 1.6915 33.5042 2.19426 34.3574L3.92338 33.3384C3.60548 32.799 3.44683 32.2168 3.44683 31.5724H1.43982ZM2.20103 34.3687C2.70904 35.2054 3.38778 35.8773 4.22796 36.3724L5.24691 34.6433C4.69446 34.3178 4.25412 33.883 3.9166 33.3271L2.20103 34.3687ZM4.23464 36.3763C5.09653 36.8753 6.03472 37.1269 7.03155 37.1269V35.1199C6.38707 35.1199 5.79585 34.9611 5.24023 34.6394L4.23464 36.3763ZM7.03155 37.1269C8.01335 37.1269 8.93185 36.931 9.76788 36.5206L8.88344 34.719C8.35171 34.98 7.7408 35.1199 7.03155 35.1199V37.1269ZM9.76788 36.5206C10.6029 36.1107 11.2813 35.5262 11.7727 34.7654L10.0867 33.6765C9.80717 34.1093 9.41614 34.4575 8.88344 34.719L9.76788 36.5206ZM11.7646 34.7776C12.2737 34.014 12.533 33.1536 12.5485 32.2233L10.5418 32.1899C10.5324 32.7517 10.3814 33.2342 10.0947 33.6643L11.7646 34.7776ZM11.5452 33.2101H12.2166V31.2031H11.5452V33.2101ZM11.2131 32.2066C11.2131 32.8738 11.0376 33.4668 10.6848 34.0103L12.3682 35.103C12.9356 34.229 13.2201 33.2553 13.2201 32.2066H11.2131ZM10.6824 34.014C10.3377 34.5502 9.85396 34.9883 9.20149 35.3247L10.1213 37.1085C11.0604 36.6243 11.8201 35.9557 12.3706 35.0993L10.6824 34.014ZM9.20693 35.3219C8.57853 35.6411 7.86014 35.81 7.03155 35.81V37.817C8.14269 37.817 9.17753 37.5879 10.1158 37.1113L9.20693 35.3219ZM7.03155 35.81C6.26279 35.81 5.56122 35.6202 4.90818 35.2384L3.89525 36.971C4.85865 37.5343 5.91031 37.817 7.03155 37.817V35.81ZM4.90818 35.2384C4.24507 34.8507 3.72808 34.3377 3.3435 33.6899L1.61776 34.7146C2.17817 35.6585 2.94191 36.4137 3.89525 36.971L4.90818 35.2384ZM3.34695 33.6958C2.96517 33.0428 2.77538 32.3412 2.77538 31.5724H0.768368C0.768368 32.6937 1.05108 33.7453 1.6143 34.7087L3.34695 33.6958ZM2.77538 31.5724V28.5136H0.768368V31.5724H2.77538ZM2.77538 28.5136C2.77538 27.7398 2.9615 27.0434 3.33075 26.4047L1.5932 25.4002C1.04232 26.3531 0.768368 27.3974 0.768368 28.5136H2.77538ZM3.3283 26.4089C3.71597 25.7458 4.22902 25.2288 4.87674 24.8442L3.85208 23.1185C2.90822 23.6789 2.15298 24.4426 1.59565 25.396L3.3283 26.4089ZM4.87088 24.8477C5.52392 24.4659 6.22549 24.2761 6.99425 24.2761V22.2691C5.873 22.2691 4.82135 22.5518 3.85794 23.115L4.87088 24.8477ZM6.99425 24.2761C7.80322 24.2761 8.5118 24.4481 9.1398 24.777L10.0711 22.9992C9.13235 22.5074 8.10014 22.2691 6.99425 22.2691V24.2761ZM9.15665 24.7857C9.80133 25.108 10.29 25.5437 10.6475 26.0944L12.3309 25.0017C11.7683 24.1349 11.0011 23.464 10.0542 22.9905L9.15665 24.7857ZM10.652 26.1013C11.0004 26.6286 11.1758 27.2124 11.1758 27.8795H13.1828C13.1828 26.8307 12.8982 25.8601 12.3265 24.9949L10.652 26.1013ZM12.1793 26.876H11.5079V28.883H12.1793V26.876ZM12.5112 27.8628C12.4957 26.9325 12.2364 26.0721 11.7273 25.3085L10.0574 26.4218C10.3441 26.8519 10.4951 27.3344 10.5045 27.8962L12.5112 27.8628ZM11.7273 25.3085C11.2251 24.5551 10.5446 23.9742 9.71193 23.5655L8.82749 25.3671C9.36262 25.6298 9.7639 25.9815 10.0574 26.4218L11.7273 25.3085ZM9.71849 23.5687C8.89097 23.155 7.97571 22.9592 6.99425 22.9592V24.9662C7.70383 24.9662 8.30555 25.1062 8.82093 25.3638L9.71849 23.5687ZM6.99425 22.9592C5.9973 22.9592 5.06248 23.2109 4.20931 23.7136L5.22826 25.4428C5.76772 25.1249 6.34987 24.9662 6.99425 24.9662V22.9592ZM4.20931 23.7136C3.36645 24.2103 2.69094 24.8858 2.19426 25.7287L3.92338 26.7476C4.24735 26.1979 4.67849 25.7667 5.22826 25.4428L4.20931 23.7136ZM2.19426 25.7287C1.6915 26.5819 1.43982 27.5167 1.43982 28.5136H3.44683C3.44683 27.8692 3.60548 27.2871 3.92338 26.7476L2.19426 25.7287ZM1.43982 28.5136V31.5724H3.44683V28.5136H1.43982ZM17.3315 23.5524V22.5489H16.3279V23.5524H17.3315ZM18.0215 23.5524H19.0251V22.5489H18.0215V23.5524ZM18.637 33.8479L19.5016 33.3384L18.637 33.8479ZM20.297 35.5079L19.7875 36.3724L20.297 35.5079ZM24.8479 35.5079L24.3385 34.6433V34.6433L24.8479 35.5079ZM26.5079 33.8479L25.6433 33.3384L26.5079 33.8479ZM27.1234 23.5524V22.5489H26.1199V23.5524H27.1234ZM27.8135 23.5524H28.817V22.5489H27.8135V23.5524ZM27.1047 34.2023L27.9676 34.7146L27.9711 34.7087L27.1047 34.2023ZM25.1837 36.1047L24.6772 35.2384L24.6713 35.2418L25.1837 36.1047ZM19.9426 36.1047L19.4303 36.9676L19.4362 36.971L19.9426 36.1047ZM18.0402 34.2023L17.1739 34.7088L17.1773 34.7146L18.0402 34.2023ZM17.3315 24.5559H18.0215V22.5489H17.3315V24.5559ZM17.018 23.5524V31.5724H19.0251V23.5524H17.018ZM17.018 31.5724C17.018 32.5694 17.2697 33.5042 17.7725 34.3574L19.5016 33.3384C19.1837 32.799 19.0251 32.2168 19.0251 31.5724H17.018ZM17.7725 34.3574C18.2692 35.2002 18.9447 35.8757 19.7875 36.3724L20.8065 34.6433C20.2567 34.3193 19.8256 33.8882 19.5016 33.3384L17.7725 34.3574ZM19.7875 36.3724C20.6407 36.8752 21.5755 37.1269 22.5725 37.1269V35.1199C21.9281 35.1199 21.3459 34.9612 20.8065 34.6433L19.7875 36.3724ZM22.5725 37.1269C23.5694 37.1269 24.5042 36.8752 25.3574 36.3724L24.3385 34.6433C23.799 34.9612 23.2168 35.1199 22.5725 35.1199V37.1269ZM25.3574 36.3724C26.2003 35.8757 26.8758 35.2002 27.3725 34.3574L25.6433 33.3384C25.3194 33.8882 24.8882 34.3193 24.3385 34.6433L25.3574 36.3724ZM27.3725 34.3574C27.8752 33.5042 28.1269 32.5694 28.1269 31.5724H26.1199C26.1199 32.2168 25.9612 32.799 25.6433 33.3384L27.3725 34.3574ZM28.1269 31.5724V23.5524H26.1199V31.5724H28.1269ZM27.1234 24.5559H27.8135V22.5489H27.1234V24.5559ZM26.81 23.5524V31.5724H28.817V23.5524H26.81ZM26.81 31.5724C26.81 32.3412 26.6202 33.0428 26.2384 33.6958L27.9711 34.7087C28.5343 33.7453 28.817 32.6937 28.817 31.5724H26.81ZM26.2419 33.6899C25.8573 34.3377 25.3403 34.8507 24.6772 35.2384L25.6901 36.971C26.6435 36.4137 27.4072 35.6585 27.9676 34.7146L26.2419 33.6899ZM24.6713 35.2418C24.034 35.6203 23.3412 35.81 22.5725 35.81V37.817C23.6938 37.817 24.7418 37.5342 25.696 36.9676L24.6713 35.2418ZM22.5725 35.81C21.8037 35.81 21.1021 35.6202 20.4491 35.2384L19.4362 36.971C20.3996 37.5343 21.4512 37.817 22.5725 37.817V35.81ZM20.455 35.2418C19.8035 34.855 19.2899 34.3414 18.9031 33.6899L17.1773 34.7146C17.7355 35.6547 18.4902 36.4094 19.4303 36.9676L20.455 35.2418ZM18.9065 33.6958C18.5247 33.0428 18.335 32.3412 18.335 31.5724H16.3279C16.3279 32.6937 16.6107 33.7453 17.1739 34.7087L18.9065 33.6958ZM18.335 31.5724V23.5524H16.3279V31.5724H18.335Z" fill="#9756D8"/>
<path d="M32.3352 37V12.177H36.0672V22.7225H48.4959V12.177H52.2621C52.2621 12.4737 52.2621 13.0329 52.2621 13.8547C52.2621 14.6536 52.2621 15.6122 52.2621 16.7307C52.2621 17.8492 52.2621 19.0932 52.2621 20.4627C52.2621 21.8094 52.2507 23.1904 52.2279 24.6056C52.2279 25.998 52.2279 27.3789 52.2279 28.7485C52.2279 30.0952 52.2279 31.3278 52.2279 32.4463C52.2279 33.5647 52.2279 34.5348 52.2279 35.3565C52.2279 36.1554 52.2279 36.7033 52.2279 37H48.4959V26.2833H36.0672V37H32.3352ZM55.694 29.9811C55.694 28.9311 55.888 27.9496 56.2761 27.0365C56.6869 26.1007 57.2347 25.2904 57.9195 24.6056C58.6043 23.898 59.3918 23.3388 60.282 22.9279C61.195 22.517 62.1651 22.3116 63.1923 22.3116C63.877 22.3116 64.5047 22.4029 65.0754 22.5855C65.646 22.7453 66.1368 22.9507 66.5477 23.2018C66.9585 23.4529 67.2895 23.7154 67.5406 23.9893C67.7917 24.2632 67.9629 24.5029 68.0542 24.7083L68.1911 22.6882H70.9987V37H68.0542V35.1854C67.94 35.368 67.7574 35.5848 67.5063 35.8359C67.2553 36.087 66.9243 36.3266 66.5134 36.5549C66.1254 36.7603 65.6574 36.9429 65.1096 37.1027C64.5618 37.2625 63.9341 37.3424 63.2265 37.3424C62.1309 37.3424 61.1151 37.1484 60.1793 36.7603C59.2662 36.3495 58.4787 35.8131 57.8168 35.1511C57.1548 34.4663 56.6299 33.6788 56.2418 32.7886C55.8766 31.8984 55.694 30.9626 55.694 29.9811ZM58.6385 29.8099C58.6385 30.4718 58.7527 31.0881 58.9809 31.6588C59.232 32.2294 59.563 32.7202 59.9738 33.131C60.3847 33.5419 60.8754 33.8729 61.4461 34.124C62.0167 34.3522 62.6444 34.4663 63.3292 34.4663C64.014 34.4663 64.6417 34.3522 65.2123 34.124C65.8058 33.8729 66.308 33.5419 66.7188 33.131C67.1525 32.6973 67.4835 32.2066 67.7118 31.6588C67.94 31.0881 68.0542 30.4718 68.0542 29.8099C68.0542 29.1479 67.94 28.5431 67.7118 27.9952C67.4835 27.4246 67.1525 26.9338 66.7188 26.523C66.308 26.1121 65.8058 25.7925 65.2123 25.5643C64.6417 25.3132 64.014 25.1877 63.3292 25.1877C62.6444 25.1877 62.0167 25.3132 61.4461 25.5643C60.8754 25.7925 60.3847 26.1121 59.9738 26.523C59.563 26.9338 59.232 27.4246 58.9809 27.9952C58.7527 28.5431 58.6385 29.1479 58.6385 29.8099ZM84.6971 33.4734C85.0166 33.8615 85.3134 34.2381 85.5873 34.6033C85.884 34.9457 86.1808 35.3109 86.4775 35.6989C85.8384 36.2011 85.1194 36.6005 84.3205 36.8973C83.5216 37.194 82.6542 37.3424 81.7183 37.3424C80.6683 37.3424 79.6754 37.1484 78.7396 36.7603C77.8265 36.3495 77.0276 35.8016 76.3429 35.1169C75.6581 34.4321 75.1103 33.6332 74.6994 32.7202C74.3114 31.8071 74.1173 30.837 74.1173 29.8099C74.1173 28.7827 74.3114 27.8126 74.6994 26.8996C75.1103 25.9866 75.6581 25.1991 76.3429 24.5371C77.0276 23.8524 77.8265 23.3159 78.7396 22.9279C79.6754 22.517 80.6683 22.3116 81.7183 22.3116C82.677 22.3116 83.5558 22.46 84.3547 22.7567C85.1764 23.0535 85.9183 23.4529 86.5802 23.9551L84.6971 26.1806C84.3091 25.861 83.8639 25.6214 83.3618 25.4616C82.8596 25.279 82.3118 25.1877 81.7183 25.1877C81.0336 25.1877 80.4058 25.3132 79.8352 25.5643C79.2646 25.7925 78.7624 26.1121 78.3287 26.523C77.9178 26.9338 77.5983 27.4246 77.37 27.9952C77.1418 28.5431 77.0276 29.1479 77.0276 29.8099C77.0276 30.4718 77.1418 31.0881 77.37 31.6588C77.5983 32.2066 77.9178 32.6973 78.3287 33.131C78.7624 33.5419 79.2646 33.8729 79.8352 34.124C80.4058 34.3522 81.0336 34.4663 81.7183 34.4663C82.3118 34.4663 82.8596 34.3864 83.3618 34.2267C83.8639 34.0441 84.3091 33.793 84.6971 33.4734ZM99.523 22.3116L101.269 24.0578C100.402 24.8567 99.5686 25.6328 98.7697 26.386C97.9936 27.1393 97.1719 27.9268 96.3045 28.7485C97.3317 30.118 98.336 31.499 99.3175 32.8914C100.299 34.2609 101.292 35.6305 102.296 37H98.9409C98.1648 35.9272 97.3773 34.8772 96.5784 33.85C95.8024 32.8001 95.0263 31.7387 94.2502 30.6658L92.2644 32.4805V37H89.3541V10.3966H92.2644V29.0566C93.5426 27.8925 94.7638 26.7741 95.9279 25.7012C97.092 24.6056 98.2904 23.4757 99.523 22.3116ZM104.124 17.2101C104.124 16.6622 104.318 16.2057 104.706 15.8405C105.117 15.4753 105.551 15.2927 106.007 15.2927C106.464 15.2927 106.886 15.4753 107.274 15.8405C107.662 16.2057 107.856 16.6622 107.856 17.2101C107.856 17.7579 107.662 18.2144 107.274 18.5796C106.886 18.922 106.464 19.0932 106.007 19.0932C105.551 19.0932 105.117 18.922 104.706 18.5796C104.318 18.2144 104.124 17.7579 104.124 17.2101ZM107.411 37H104.501V22.6882H107.411V37ZM111.522 22.6882H114.09C114.136 23.3958 114.17 24.0464 114.193 24.6398C114.239 25.2105 114.284 25.7811 114.33 26.3518C114.855 25.1192 115.597 24.1377 116.555 23.4073C117.537 22.6768 118.735 22.3116 120.15 22.3116C121.588 22.3116 122.741 22.7111 123.609 23.51C124.476 24.3089 124.932 25.336 124.978 26.5914V37H122.034V27.9268C121.988 27.1963 121.737 26.58 121.28 26.0779C120.824 25.5529 120.105 25.2676 119.123 25.2219C118.438 25.2219 117.811 25.3474 117.24 25.5985C116.669 25.8268 116.179 26.1463 115.768 26.5572C115.357 26.9681 115.026 27.4588 114.775 28.0295C114.547 28.6001 114.433 29.2278 114.433 29.9126V37H111.522V22.6882ZM127.984 29.8784C127.984 28.8055 128.178 27.8126 128.566 26.8996C128.954 25.9637 129.479 25.1648 130.141 24.5029C130.803 23.8181 131.579 23.2817 132.469 22.8937C133.359 22.5056 134.307 22.3116 135.311 22.3116C136.087 22.3116 136.772 22.4143 137.365 22.6198C137.982 22.8252 138.495 23.0649 138.906 23.3388C139.317 23.6127 139.636 23.8866 139.865 24.1605C140.116 24.4116 140.276 24.5942 140.344 24.7083C140.344 24.3888 140.367 24.0578 140.412 23.7154C140.458 23.3502 140.481 23.0078 140.481 22.6882H143.289V36.3495C143.289 38.7233 142.592 40.5722 141.2 41.8961C139.808 43.22 137.924 43.882 135.551 43.882C134.729 43.882 133.987 43.7907 133.325 43.6081C132.686 43.4483 132.092 43.2314 131.545 42.9575C131.02 42.6836 130.529 42.3641 130.072 41.9988C129.639 41.6336 129.205 41.257 128.771 40.869L130.654 38.8831C131.362 39.5451 132.081 40.0701 132.812 40.4581C133.565 40.8461 134.455 41.0402 135.482 41.0402C137.011 41.0402 138.198 40.675 139.043 39.9445C139.887 39.2141 140.321 38.1984 140.344 36.8973V35.9044C140.344 35.7218 140.367 35.5277 140.412 35.3223C140.458 35.094 140.481 34.9229 140.481 34.8087C140.276 35.0826 140.013 35.3794 139.693 35.6989C139.397 35.9957 139.043 36.2696 138.632 36.5207C138.221 36.7489 137.742 36.9429 137.194 37.1027C136.646 37.2625 136.03 37.3424 135.345 37.3424C134.272 37.3424 133.291 37.1484 132.401 36.7603C131.51 36.3723 130.734 35.8473 130.072 35.1854C129.41 34.5006 128.897 33.7131 128.532 32.8229C128.166 31.9099 127.984 30.9283 127.984 29.8784ZM130.928 29.8099C130.928 30.4718 131.043 31.0881 131.271 31.6588C131.522 32.2294 131.853 32.7202 132.264 33.131C132.675 33.5419 133.165 33.8729 133.736 34.124C134.307 34.3522 134.934 34.4663 135.619 34.4663C136.304 34.4663 136.932 34.3522 137.502 34.124C138.096 33.8729 138.598 33.5419 139.009 33.131C139.442 32.6973 139.773 32.2066 140.002 31.6588C140.23 31.0881 140.344 30.4718 140.344 29.8099C140.344 29.1479 140.23 28.5431 140.002 27.9952C139.773 27.4246 139.442 26.9338 139.009 26.523C138.598 26.1121 138.096 25.7925 137.502 25.5643C136.932 25.3132 136.304 25.1877 135.619 25.1877C134.934 25.1877 134.307 25.3132 133.736 25.5643C133.165 25.7925 132.675 26.1121 132.264 26.523C131.853 26.9338 131.522 27.4246 131.271 27.9952C131.043 28.5431 130.928 29.1479 130.928 29.8099Z" fill="#1D0437"/>
<defs>
<filter id="filter0_d" x="142.794" y="12.3923" width="15.1385" height="11.3158" filterUnits="userSpaceOnUse" color-interpolation-filters="sRGB">
<feFlood flood-opacity="0" result="BackgroundImageFix"/>
<feColorMatrix in="SourceAlpha" type="matrix" values="0 0 0 0 0 0 0 0 0 0 0 0 0 0 0 0 0 0 127 0"/>
<feOffset/>
<feGaussianBlur stdDeviation="0.455243"/>
<feColorMatrix type="matrix" values="0 0 0 0 0 0 0 0 0 0.816584 0 0 0 0 0.995833 0 0 0 1 0"/>
<feBlend mode="normal" in2="BackgroundImageFix" result="effect1_dropShadow"/>
<feBlend mode="normal" in="SourceGraphic" in2="effect1_dropShadow" result="shape"/>
</filter>
</defs>
</svg>
