<svg width="165" height="156" viewBox="0 0 165 156" fill="none" xmlns="http://www.w3.org/2000/svg">
<path d="M17.1594 93.0437L145.427 33.5321L165 0L17.1594 93.0437Z" fill="#280749"/>
<path d="M21.1754 93.9683L113.04 70.1667L138.709 40.7527L21.1754 93.9683Z" fill="#280749"/>
<path d="M107.33 8.15845L12.3505 93.3446L91.099 43.6776L107.33 8.15845Z" fill="#280749"/>
<path d="M54.102 51.805L33.2533 56.9225L12.0496 90.6359L54.102 51.805Z" fill="#280749"/>
<path d="M19.2636 82.8092L34.307 67.7589L33.6909 59.9322L19.2636 82.8092Z" fill="#280749"/>
<path d="M0.782428 140.572C0.782428 141.529 1.0215 142.415 1.49965 143.227C1.99229 144.04 2.64432 144.686 3.45572 145.164C4.28162 145.643 5.17272 145.883 6.12902 145.883C7.1143 145.883 8.0054 145.687 8.80232 145.295C9.59923 144.903 10.2223 144.359 10.6715 143.663C11.1351 142.966 11.3742 142.182 11.3887 141.312H12.1711C12.1711 142.313 11.9031 143.227 11.3669 144.054C10.8453 144.867 10.1209 145.513 9.19353 145.992C8.2807 146.456 7.25919 146.688 6.12902 146.688C5.02783 146.688 4.00632 146.412 3.06451 145.861C2.1227 145.31 1.37649 144.569 0.825896 143.641C0.275299 142.698 0 141.675 0 140.572V137.002C0 135.899 0.268054 134.883 0.804162 133.955C1.35476 133.012 2.09372 132.264 3.02104 131.713C3.96285 131.161 4.98436 130.886 6.08555 130.886C7.20124 130.886 8.2155 131.125 9.12833 131.604C10.0557 132.068 10.7874 132.714 11.3235 133.541C11.8596 134.354 12.1276 135.261 12.1276 136.262H11.3452C11.3307 135.391 11.0916 134.608 10.628 133.911C10.1643 133.215 9.53403 132.671 8.73711 132.279C7.95469 131.887 7.07083 131.691 6.08555 131.691C5.12925 131.691 4.2454 131.931 3.43399 132.409C2.62258 132.888 1.9778 133.534 1.49965 134.347C1.0215 135.159 0.782428 136.044 0.782428 137.002V140.572Z" fill="#280749"/>
<path d="M18.1313 131.212H18.9355V140.572C18.9355 141.529 19.1746 142.415 19.6527 143.227C20.1309 144.04 20.7757 144.686 21.5871 145.164C22.3985 145.643 23.2823 145.883 24.2386 145.883C25.1949 145.883 26.0788 145.643 26.8902 145.164C27.7016 144.686 28.3464 144.04 28.8245 143.227C29.3027 142.415 29.5418 141.529 29.5418 140.572V131.212H30.3459V140.572C30.3459 141.675 30.0706 142.698 29.52 143.641C28.9694 144.569 28.2232 145.31 27.2814 145.861C26.3541 146.412 25.3398 146.688 24.2386 146.688C23.1374 146.688 22.1159 146.412 21.1741 145.861C20.2468 145.31 19.5078 144.569 18.9572 143.641C18.4066 142.698 18.1313 141.675 18.1313 140.572V131.212Z" fill="#280749"/>
<path d="M35.6151 147.969V119H39.964V131.307H54.4469V119H58.8356C58.8356 119.346 58.8356 119.999 58.8356 120.958C58.8356 121.89 58.8356 123.009 58.8356 124.314C58.8356 125.62 58.8356 127.071 58.8356 128.67C58.8356 130.241 58.8223 131.853 58.7957 133.504C58.7957 135.129 58.7957 136.741 58.7957 138.339C58.7957 139.911 58.7957 141.349 58.7957 142.654C58.7957 143.96 58.7957 145.092 58.7957 146.051C58.7957 146.983 58.7957 147.622 58.7957 147.969H54.4469V135.462H39.964V147.969H35.6151Z" fill="#280749"/>
<path d="M62.8348 139.778C62.8348 138.552 63.0609 137.407 63.513 136.341C63.9918 135.249 64.6302 134.303 65.4281 133.504C66.2261 132.679 67.1437 132.026 68.1811 131.546C69.245 131.067 70.3755 130.827 71.5724 130.827C72.3703 130.827 73.1018 130.934 73.7668 131.147C74.4317 131.333 75.0036 131.573 75.4824 131.866C75.9612 132.159 76.3468 132.465 76.6394 132.785C76.932 133.105 77.1315 133.384 77.2379 133.624L77.3975 131.267H80.6691V147.969H77.2379V145.851C77.1049 146.064 76.8921 146.317 76.5995 146.61C76.3069 146.903 75.9212 147.183 75.4425 147.449C74.9903 147.689 74.445 147.902 73.8067 148.089C73.1683 148.275 72.4368 148.368 71.6123 148.368C70.3356 148.368 69.1519 148.142 68.0614 147.689C66.9974 147.21 66.0798 146.584 65.3084 145.811C64.5371 145.012 63.9253 144.093 63.4731 143.054C63.0476 142.015 62.8348 140.923 62.8348 139.778ZM66.266 139.578C66.266 140.35 66.399 141.069 66.665 141.735C66.9575 142.401 67.3432 142.974 67.822 143.454C68.3008 143.933 68.8726 144.319 69.5376 144.612C70.2026 144.879 70.934 145.012 71.732 145.012C72.5299 145.012 73.2614 144.879 73.9264 144.612C74.6179 144.319 75.2031 143.933 75.6819 143.454C76.1872 142.947 76.5729 142.375 76.8389 141.735C77.1049 141.069 77.2379 140.35 77.2379 139.578C77.2379 138.805 77.1049 138.099 76.8389 137.46C76.5729 136.794 76.1872 136.221 75.6819 135.742C75.2031 135.262 74.6179 134.89 73.9264 134.623C73.2614 134.33 72.5299 134.184 71.732 134.184C70.934 134.184 70.2026 134.33 69.5376 134.623C68.8726 134.89 68.3008 135.262 67.822 135.742C67.3432 136.221 66.9575 136.794 66.665 137.46C66.399 138.099 66.266 138.805 66.266 139.578Z" fill="#280749"/>
<path d="M96.6316 143.853C97.004 144.306 97.3498 144.746 97.669 145.172C98.0148 145.571 98.3605 145.997 98.7063 146.45C97.9616 147.036 97.1237 147.503 96.1928 147.849C95.2618 148.195 94.2511 148.368 93.1605 148.368C91.937 148.368 90.78 148.142 89.6894 147.689C88.6255 147.21 87.6945 146.57 86.8966 145.771C86.0986 144.972 85.4603 144.04 84.9815 142.974C84.5293 141.909 84.3032 140.776 84.3032 139.578C84.3032 138.379 84.5293 137.247 84.9815 136.181C85.4603 135.116 86.0986 134.197 86.8966 133.424C87.6945 132.625 88.6255 131.999 89.6894 131.546C90.78 131.067 91.937 130.827 93.1605 130.827C94.2777 130.827 95.3017 131 96.2327 131.347C97.1902 131.693 98.0547 132.159 98.826 132.745L96.6316 135.342C96.1795 134.969 95.6608 134.69 95.0756 134.503C94.4905 134.29 93.8521 134.184 93.1605 134.184C92.3626 134.184 91.6311 134.33 90.9661 134.623C90.3012 134.89 89.716 135.262 89.2106 135.742C88.7319 136.221 88.3595 136.794 88.0935 137.46C87.8275 138.099 87.6945 138.805 87.6945 139.578C87.6945 140.35 87.8275 141.069 88.0935 141.735C88.3595 142.375 88.7319 142.947 89.2106 143.454C89.716 143.933 90.3012 144.319 90.9661 144.612C91.6311 144.879 92.3626 145.012 93.1605 145.012C93.8521 145.012 94.4905 144.919 95.0756 144.732C95.6608 144.519 96.1795 144.226 96.6316 143.853Z" fill="#280749"/>
<path d="M113.908 130.827L115.943 132.865C114.932 133.797 113.961 134.703 113.03 135.582C112.126 136.461 111.168 137.38 110.158 138.339C111.355 139.937 112.525 141.549 113.669 143.174C114.812 144.772 115.969 146.37 117.14 147.969H113.23C112.325 146.717 111.408 145.491 110.477 144.293C109.572 143.067 108.668 141.829 107.764 140.577L105.45 142.694V147.969H102.058V116.922H105.45V138.699C106.939 137.34 108.362 136.035 109.719 134.783C111.075 133.504 112.472 132.186 113.908 130.827Z" fill="#280749"/>
<path d="M119.27 124.874C119.27 124.234 119.496 123.702 119.948 123.275C120.427 122.849 120.932 122.636 121.464 122.636C121.996 122.636 122.488 122.849 122.94 123.275C123.392 123.702 123.618 124.234 123.618 124.874C123.618 125.513 123.392 126.046 122.94 126.472C122.488 126.872 121.996 127.071 121.464 127.071C120.932 127.071 120.427 126.872 119.948 126.472C119.496 126.046 119.27 125.513 119.27 124.874ZM123.1 147.969H119.708V131.267H123.1V147.969Z" fill="#280749"/>
<path d="M127.891 131.267H130.883C130.936 132.093 130.976 132.852 131.003 133.544C131.056 134.21 131.109 134.876 131.162 135.542C131.774 134.104 132.638 132.958 133.756 132.106C134.899 131.253 136.296 130.827 137.945 130.827C139.621 130.827 140.964 131.293 141.975 132.226C142.985 133.158 143.517 134.357 143.57 135.822V147.969H140.139V137.38C140.086 136.528 139.793 135.809 139.262 135.222C138.73 134.61 137.892 134.277 136.748 134.224C135.95 134.224 135.219 134.37 134.554 134.663C133.889 134.929 133.317 135.302 132.838 135.782C132.359 136.261 131.974 136.834 131.681 137.5C131.415 138.166 131.282 138.899 131.282 139.698V147.969H127.891V131.267Z" fill="#280749"/>
<path d="M147.073 139.658C147.073 138.406 147.299 137.247 147.751 136.181C148.204 135.089 148.815 134.157 149.587 133.384C150.358 132.585 151.262 131.959 152.3 131.507C153.337 131.054 154.441 130.827 155.611 130.827C156.516 130.827 157.314 130.947 158.005 131.187C158.723 131.427 159.322 131.706 159.8 132.026C160.279 132.346 160.652 132.665 160.918 132.985C161.21 133.278 161.396 133.491 161.476 133.624C161.476 133.251 161.503 132.865 161.556 132.465C161.609 132.039 161.636 131.64 161.636 131.267H164.907V147.21C164.907 149.98 164.096 152.138 162.474 153.682C160.851 155.227 158.657 156 155.89 156C154.933 156 154.068 155.893 153.297 155.68C152.552 155.494 151.861 155.241 151.222 154.921C150.611 154.602 150.039 154.229 149.507 153.802C149.001 153.376 148.496 152.937 147.991 152.484L150.185 150.166C151.01 150.939 151.848 151.551 152.699 152.004C153.576 152.457 154.614 152.684 155.811 152.684C157.593 152.684 158.976 152.257 159.96 151.405C160.944 150.553 161.45 149.367 161.476 147.849V146.69C161.476 146.477 161.503 146.251 161.556 146.011C161.609 145.744 161.636 145.545 161.636 145.411C161.396 145.731 161.091 146.077 160.718 146.45C160.372 146.797 159.96 147.116 159.481 147.409C159.003 147.676 158.444 147.902 157.806 148.089C157.167 148.275 156.449 148.368 155.651 148.368C154.401 148.368 153.257 148.142 152.22 147.689C151.183 147.236 150.278 146.623 149.507 145.851C148.735 145.052 148.137 144.133 147.711 143.094C147.286 142.028 147.073 140.883 147.073 139.658ZM150.504 139.578C150.504 140.35 150.637 141.069 150.903 141.735C151.196 142.401 151.582 142.974 152.06 143.454C152.539 143.933 153.111 144.319 153.776 144.612C154.441 144.879 155.172 145.012 155.97 145.012C156.768 145.012 157.5 144.879 158.165 144.612C158.856 144.319 159.441 143.933 159.92 143.454C160.426 142.947 160.811 142.375 161.077 141.735C161.343 141.069 161.476 140.35 161.476 139.578C161.476 138.805 161.343 138.099 161.077 137.46C160.811 136.794 160.426 136.221 159.92 135.742C159.441 135.262 158.856 134.89 158.165 134.623C157.5 134.33 156.768 134.184 155.97 134.184C155.172 134.184 154.441 134.33 153.776 134.623C153.111 134.89 152.539 135.262 152.06 135.742C151.582 136.221 151.196 136.794 150.903 137.46C150.637 138.099 150.504 138.805 150.504 139.578Z" fill="#280749"/>
</svg>
